<svg width="200" height="60" viewBox="0 0 200 60" fill="none" xmlns="http://www.w3.org/2000/svg">
  <path d="M73.4 15.2H94.7V19.8H78.8V27.3H94.1V31.9H78.8V44.8H73.4V15.2Z" fill="#0C3B5E"/>
  <path d="M97.2 15.2H112.7C119.2 15.2 123.8 19.6 123.8 25.7C123.8 32 119 36.3 112.3 36.3H102.6V44.8H97.2V15.2ZM111.8 31.7C115.9 31.7 118.3 29.1 118.3 25.7C118.3 22.2 116 19.8 111.9 19.8H102.6V31.7H111.8Z" fill="#0C3B5E"/>
  <path d="M127.4 36.8V15.2H132.8V36.4C132.8 39.6 134.5 41.2 138.2 41.2C142 41.2 143.8 39.6 143.8 36.4V15.2H149.2V36.6C149.2 43.1 145.4 45.2 138.2 45.2C131.1 45.2 127.4 43.1 127.4 36.8Z" fill="#0C3B5E"/>
  <path d="M45.6 16.4C44.9 16.4 44.2 16.6 43.7 17.1L35.1 25.7L26.5 17.1C26 16.6 25.3 16.4 24.6 16.4C23.9 16.4 23.2 16.6 22.7 17.1L14.1 25.7L5.5 17.1C5 16.6 4.3 16.4 3.6 16.4C2.9 16.4 2.2 16.6 1.7 17.1L1.4 17.4V43.9L1.7 44.2C2.2 44.7 2.9 44.9 3.6 44.9C4.3 44.9 5 44.7 5.5 44.2L14.1 35.6L22.7 44.2C23.2 44.7 23.9 44.9 24.6 44.9C25.3 44.9 26 44.7 26.5 44.2L35.1 35.6L43.7 44.2C44.2 44.7 44.9 44.9 45.6 44.9C46.3 44.9 47 44.7 47.5 44.2L47.8 43.9V17.4L47.5 17.1C47 16.6 46.3 16.4 45.6 16.4Z" fill="#E30613"/>
  <path d="M46.3 40.7L38.6 33L46.3 25.3V40.7Z" fill="#0C3B5E"/>
  <path d="M24.7 21.3L35.1 31.7L45.6 21.3V22.4L35.1 32.9L24.7 22.4V21.3Z" fill="#0C3B5E"/>
  <path d="M3.6 40.7V25.3L11.3 33L3.6 40.7Z" fill="#0C3B5E"/>
  <path d="M24.6 40.7L16.9 33L24.6 25.3V40.7Z" fill="#0C3B5E"/>
  <path d="M45.5 21.3L35.1 31.7L24.7 21.3L14.2 31.7L3.8 21.3V19.6L14.2 30L24.6 19.6L35.1 30L45.5 19.6V21.3Z" fill="#0C3B5E"/>
</svg>